<?xml version="1.0" encoding="UTF-8"?>
<svg xmlns="http://www.w3.org/2000/svg" width="1000" height="800" viewBox="0 0 1000 800">
  <defs>
    <style>
      .room-label { font-family: Arial, sans-serif; font-weight: 500; }
    </style>
  </defs>

  <!-- Background -->
  <rect width="1000" height="800" fill="#ffffff" />

  <!-- Footprint (boundary) -->
  <path d="M 60.00 693.33 L 940.00 693.33 L 940.00 106.67 L 60.00 106.67 Z" fill="none" stroke="#333333" stroke-width="2" stroke-dasharray="8,4" />

  <!-- Rooms -->
  <path d="M 304.44 693.33 L 377.78 693.33 L 377.78 106.67 L 304.44 106.67 Z" fill="#ffffff" stroke="#707070" stroke-width="1" />
    <path d="M 377.78 480.67 L 940.00 480.67 L 940.00 106.67 L 377.78 106.67 Z" fill="#ffffff" stroke="#707070" stroke-width="1" />
    <path d="M 377.78 693.33 L 940.00 693.33 L 940.00 480.67 L 377.78 480.67 Z" fill="#ffffff" stroke="#707070" stroke-width="1" />
    <path d="M 60.00 302.22 L 304.44 302.22 L 304.44 106.67 L 60.00 106.67 Z" fill="#ffffff" stroke="#707070" stroke-width="1" />
    <path d="M 60.00 693.33 L 304.44 693.33 L 304.44 444.00 L 60.00 444.00 Z" fill="#ffffff" stroke="#707070" stroke-width="1" />
    <path d="M 60.00 444.00 L 304.44 444.00 L 304.44 302.22 L 60.00 302.22 Z" fill="#ffffff" stroke="#707070" stroke-width="1" />

  <!-- Courtyards -->


  <!-- Objects / Fixtures -->


  <!-- Walls -->
  <line x1="377.78" y1="480.67" x2="377.78" y2="106.67" stroke="#111111" stroke-width="3" stroke-linecap="round" />
    <line x1="377.78" y1="693.33" x2="377.78" y2="480.67" stroke="#111111" stroke-width="3" stroke-linecap="round" />
    <line x1="304.44" y1="302.22" x2="304.44" y2="106.67" stroke="#111111" stroke-width="3" stroke-linecap="round" />
    <line x1="304.44" y1="693.33" x2="304.44" y2="444.00" stroke="#111111" stroke-width="3" stroke-linecap="round" />
    <line x1="304.44" y1="444.00" x2="304.44" y2="302.22" stroke="#111111" stroke-width="3" stroke-linecap="round" />
    <line x1="377.78" y1="480.67" x2="940.00" y2="480.67" stroke="#111111" stroke-width="3" stroke-linecap="round" />
    <line x1="60.00" y1="302.22" x2="304.44" y2="302.22" stroke="#111111" stroke-width="3" stroke-linecap="round" />
    <line x1="60.00" y1="444.00" x2="304.44" y2="444.00" stroke="#111111" stroke-width="3" stroke-linecap="round" />
    <line x1="304.44" y1="693.33" x2="377.78" y2="693.33" stroke="#111111" stroke-width="3" stroke-linecap="round" />
    <line x1="304.44" y1="106.67" x2="377.78" y2="106.67" stroke="#111111" stroke-width="3" stroke-linecap="round" />
    <line x1="940.00" y1="480.67" x2="940.00" y2="106.67" stroke="#111111" stroke-width="3" stroke-linecap="round" />
    <line x1="377.78" y1="106.67" x2="940.00" y2="106.67" stroke="#111111" stroke-width="3" stroke-linecap="round" />
    <line x1="377.78" y1="693.33" x2="940.00" y2="693.33" stroke="#111111" stroke-width="3" stroke-linecap="round" />
    <line x1="940.00" y1="693.33" x2="940.00" y2="480.67" stroke="#111111" stroke-width="3" stroke-linecap="round" />
    <line x1="60.00" y1="106.67" x2="304.44" y2="106.67" stroke="#111111" stroke-width="3" stroke-linecap="round" />
    <line x1="60.00" y1="302.22" x2="60.00" y2="106.67" stroke="#111111" stroke-width="3" stroke-linecap="round" />
    <line x1="60.00" y1="693.33" x2="304.44" y2="693.33" stroke="#111111" stroke-width="3" stroke-linecap="round" />
    <line x1="60.00" y1="693.33" x2="60.00" y2="444.00" stroke="#111111" stroke-width="3" stroke-linecap="round" />
    <line x1="60.00" y1="444.00" x2="60.00" y2="302.22" stroke="#111111" stroke-width="3" stroke-linecap="round" />

  <!-- Openings (doors/windows) -->
  <line x1="377.78" y1="315.67" x2="377.78" y2="271.67" stroke="#111111" stroke-width="4" stroke-linecap="round" />
    <line class="door-leaf" x1="377.78" y1="271.67" x2="421.78" y2="271.67" stroke="#111111" stroke-width="1.5" stroke-linecap="round" />
    <path class="door-swing" d="M 377.78 315.67 A 44.00 44.00 0 0 0 421.78 271.67" fill="none" stroke="#111111" stroke-width="1" stroke-dasharray="2,2" opacity="0.8" />
    <line x1="377.78" y1="609.00" x2="377.78" y2="565.00" stroke="#111111" stroke-width="4" stroke-linecap="round" />
    <line class="door-leaf" x1="377.78" y1="609.00" x2="421.78" y2="609.00" stroke="#111111" stroke-width="1.5" stroke-linecap="round" />
    <path class="door-swing" d="M 377.78 565.00 A 44.00 44.00 0 0 1 421.78 609.00" fill="none" stroke="#111111" stroke-width="1" stroke-dasharray="2,2" opacity="0.8" />
    <line x1="304.44" y1="226.44" x2="304.44" y2="182.44" stroke="#111111" stroke-width="4" stroke-linecap="round" />
    <line class="door-leaf" x1="304.44" y1="226.44" x2="348.44" y2="226.44" stroke="#111111" stroke-width="1.5" stroke-linecap="round" />
    <path class="door-swing" d="M 304.44 182.44 A 44.00 44.00 0 0 1 348.44 226.44" fill="none" stroke="#111111" stroke-width="1" stroke-dasharray="2,2" opacity="0.8" />
    <line x1="304.44" y1="590.67" x2="304.44" y2="546.67" stroke="#111111" stroke-width="4" stroke-linecap="round" />
    <line class="door-leaf" x1="304.44" y1="546.67" x2="348.44" y2="546.67" stroke="#111111" stroke-width="1.5" stroke-linecap="round" />
    <path class="door-swing" d="M 304.44 590.67 A 44.00 44.00 0 0 0 348.44 546.67" fill="none" stroke="#111111" stroke-width="1" stroke-dasharray="2,2" opacity="0.8" />
    <line x1="636.89" y1="480.67" x2="680.89" y2="480.67" stroke="#111111" stroke-width="4" stroke-linecap="round" />
    <line class="door-leaf" x1="680.89" y1="480.67" x2="680.89" y2="524.67" stroke="#111111" stroke-width="1.5" stroke-linecap="round" />
    <path class="door-swing" d="M 636.89 480.67 A 44.00 44.00 0 0 0 680.89 524.67" fill="none" stroke="#111111" stroke-width="1" stroke-dasharray="2,2" opacity="0.8" />
    <line x1="304.44" y1="395.11" x2="304.44" y2="351.11" stroke="#111111" stroke-width="4" stroke-linecap="round" />
    <line class="door-leaf" x1="304.44" y1="395.11" x2="348.44" y2="395.11" stroke="#111111" stroke-width="1.5" stroke-linecap="round" />
    <path class="door-swing" d="M 304.44 351.11 A 44.00 44.00 0 0 1 348.44 395.11" fill="none" stroke="#111111" stroke-width="1" stroke-dasharray="2,2" opacity="0.8" />
    <line x1="316.67" y1="693.33" x2="365.56" y2="693.33" stroke="#111111" stroke-width="4" stroke-linecap="round" />
    <line class="door-leaf" x1="365.56" y1="693.33" x2="365.56" y2="742.22" stroke="#111111" stroke-width="1.5" stroke-linecap="round" />
    <path class="door-swing" d="M 316.67 693.33 A 48.89 48.89 0 0 0 365.56 742.22" fill="none" stroke="#111111" stroke-width="1" stroke-dasharray="2,2" opacity="0.8" />
    <line x1="603.89" y1="106.67" x2="713.89" y2="106.67" stroke="#111111" stroke-width="3" stroke-linecap="round" />
    <line x1="145.56" y1="106.67" x2="218.89" y2="106.67" stroke="#111111" stroke-width="3" stroke-linecap="round" />
    <line x1="60.00" y1="605.33" x2="60.00" y2="532.00" stroke="#111111" stroke-width="3" stroke-linecap="round" />
    <line x1="60.00" y1="391.44" x2="60.00" y2="354.78" stroke="#111111" stroke-width="3" stroke-linecap="round" />

  <!-- Labels -->
  <text class="room-label" data-room-label="hall" x="341.11" y="400.00" font-size="14" fill="#111111" text-anchor="middle" dominant-baseline="middle" font-family="Arial, sans-serif">Hallway</text>
    <text class="room-label" data-room-label="living" x="658.89" y="293.67" font-size="14" fill="#111111" text-anchor="middle" dominant-baseline="middle" font-family="Arial, sans-serif">Living Room</text>
    <text class="room-label" data-room-label="kitchen" x="658.89" y="587.00" font-size="14" fill="#111111" text-anchor="middle" dominant-baseline="middle" font-family="Arial, sans-serif">Kitchen</text>
    <text class="room-label" data-room-label="master" x="182.22" y="204.44" font-size="14" fill="#111111" text-anchor="middle" dominant-baseline="middle" font-family="Arial, sans-serif">Master Bedroom</text>
    <text class="room-label" data-room-label="bedroom2" x="182.22" y="568.67" font-size="14" fill="#111111" text-anchor="middle" dominant-baseline="middle" font-family="Arial, sans-serif">Bedroom 2</text>
    <text class="room-label" data-room-label="bath" x="182.22" y="373.11" font-size="14" fill="#111111" text-anchor="middle" dominant-baseline="middle" font-family="Arial, sans-serif">Bathroom</text>

  <!-- Dimensions -->


  <!-- Compass / Orientation -->

</svg>