<?xml version="1.0" encoding="UTF-8"?>
<svg xmlns="http://www.w3.org/2000/svg" width="1000" height="800" viewBox="0 0 1000 800">
  <defs>
    <style>
      .room-label { font-family: Arial, sans-serif; font-weight: 500; }
    </style>
  </defs>

  <!-- Background -->
  <rect width="1000" height="800" fill="#ffffff" />

  <!-- Footprint (boundary) -->
  <path d="M 273.33 740.00 L 726.67 740.00 L 726.67 60.00 L 273.33 60.00 Z" fill="none" stroke="#333333" stroke-width="2" stroke-dasharray="8,4" />

  <!-- Rooms -->
  <path d="M 273.33 740.00 L 556.67 740.00 L 556.67 513.33 L 273.33 513.33 Z" fill="#ffffff" stroke="#707070" stroke-width="1" />
    <path d="M 273.33 286.67 L 556.67 286.67 L 556.67 60.00 L 273.33 60.00 Z" fill="#ffffff" stroke="#707070" stroke-width="1" />
    <path d="M 556.67 740.00 L 641.67 740.00 L 641.67 60.00 L 556.67 60.00 Z" fill="#ffffff" stroke="#707070" stroke-width="1" />

  <!-- Courtyards -->


  <!-- Objects / Fixtures -->


  <!-- Walls -->
  <line x1="556.67" y1="740.00" x2="556.67" y2="513.33" stroke="#111111" stroke-width="3" stroke-linecap="round" />
    <line x1="556.67" y1="286.67" x2="556.67" y2="60.00" stroke="#111111" stroke-width="3" stroke-linecap="round" />
    <line x1="273.33" y1="740.00" x2="556.67" y2="740.00" stroke="#111111" stroke-width="3" stroke-linecap="round" />
    <line x1="273.33" y1="513.33" x2="556.67" y2="513.33" stroke="#111111" stroke-width="3" stroke-linecap="round" />
    <line x1="273.33" y1="740.00" x2="273.33" y2="513.33" stroke="#111111" stroke-width="3" stroke-linecap="round" />
    <line x1="273.33" y1="286.67" x2="556.67" y2="286.67" stroke="#111111" stroke-width="3" stroke-linecap="round" />
    <line x1="273.33" y1="60.00" x2="556.67" y2="60.00" stroke="#111111" stroke-width="3" stroke-linecap="round" />
    <line x1="273.33" y1="286.67" x2="273.33" y2="60.00" stroke="#111111" stroke-width="3" stroke-linecap="round" />
    <line x1="556.67" y1="740.00" x2="641.67" y2="740.00" stroke="#111111" stroke-width="3" stroke-linecap="round" />
    <line x1="641.67" y1="740.00" x2="641.67" y2="60.00" stroke="#111111" stroke-width="3" stroke-linecap="round" />
    <line x1="556.67" y1="60.00" x2="641.67" y2="60.00" stroke="#111111" stroke-width="3" stroke-linecap="round" />
    <line x1="556.67" y1="513.33" x2="556.67" y2="286.67" stroke="#111111" stroke-width="3" stroke-linecap="round" />

  <!-- Openings (doors/windows) -->
  <line x1="556.67" y1="652.17" x2="556.67" y2="601.17" stroke="#111111" stroke-width="4" stroke-linecap="round" />
    <line class="door-leaf" x1="556.67" y1="601.17" x2="607.67" y2="601.17" stroke="#111111" stroke-width="1.5" stroke-linecap="round" />
    <path class="door-swing" d="M 556.67 652.17 A 51.00 51.00 0 0 0 607.67 601.17" fill="none" stroke="#111111" stroke-width="1" stroke-dasharray="2,2" opacity="0.8" />
    <line x1="556.67" y1="198.83" x2="556.67" y2="147.83" stroke="#111111" stroke-width="4" stroke-linecap="round" />
    <line class="door-leaf" x1="556.67" y1="147.83" x2="505.67" y2="147.83" stroke="#111111" stroke-width="1.5" stroke-linecap="round" />
    <path class="door-swing" d="M 556.67 198.83 A 51.00 51.00 0 0 1 505.67 147.83" fill="none" stroke="#111111" stroke-width="1" stroke-dasharray="2,2" opacity="0.8" />
    <line x1="372.50" y1="60.00" x2="457.50" y2="60.00" stroke="#111111" stroke-width="3" stroke-linecap="round" />

  <!-- Labels -->
  <text class="room-label" data-room-label="living" x="415.00" y="626.67" font-size="14" fill="#111111" text-anchor="middle" dominant-baseline="middle" font-family="Arial, sans-serif">Living</text>
    <text class="room-label" data-room-label="bedroom" x="415.00" y="173.33" font-size="14" fill="#111111" text-anchor="middle" dominant-baseline="middle" font-family="Arial, sans-serif">Bedroom</text>
    <text class="room-label" data-room-label="hall" x="599.17" y="400.00" font-size="14" fill="#111111" text-anchor="middle" dominant-baseline="middle" font-family="Arial, sans-serif">Hall</text>

  <!-- Dimensions -->


  <!-- Compass / Orientation -->

</svg>