<?xml version="1.0" encoding="UTF-8"?>
<svg xmlns="http://www.w3.org/2000/svg" width="1000" height="800" viewBox="0 0 1000 800">
  <defs>
    <style>
      .room-label { font-family: Arial, sans-serif; font-weight: 500; }
    </style>
  </defs>

  <!-- Background -->
  <rect width="1000" height="800" fill="#ffffff" />

  <!-- Footprint (boundary) -->
  <path d="M 60.00 693.33 L 940.00 693.33 L 940.00 106.67 L 60.00 106.67 Z" fill="none" stroke="#7f8c8d" stroke-width="2" stroke-dasharray="8,4" />

  <!-- Rooms -->
  <path d="M 60.00 693.33 L 353.33 693.33 L 353.33 106.67 L 60.00 106.67 Z" fill="#ecf0f1" stroke="#bdc3c7" stroke-width="1" />
    <path d="M 353.33 693.33 L 940.00 693.33 L 940.00 106.67 L 353.33 106.67 Z" fill="#ecf0f1" stroke="#bdc3c7" stroke-width="1" />

  <!-- Courtyards -->


  <!-- Objects / Fixtures -->


  <!-- Walls -->
  <line x1="353.33" y1="693.33" x2="353.33" y2="106.67" stroke="#2c3e50" stroke-width="3" stroke-linecap="round" />
    <line x1="60.00" y1="693.33" x2="353.33" y2="693.33" stroke="#2c3e50" stroke-width="3" stroke-linecap="round" />
    <line x1="60.00" y1="106.67" x2="353.33" y2="106.67" stroke="#2c3e50" stroke-width="3" stroke-linecap="round" />
    <line x1="60.00" y1="693.33" x2="60.00" y2="106.67" stroke="#2c3e50" stroke-width="3" stroke-linecap="round" />
    <line x1="353.33" y1="693.33" x2="940.00" y2="693.33" stroke="#2c3e50" stroke-width="3" stroke-linecap="round" />
    <line x1="940.00" y1="693.33" x2="940.00" y2="106.67" stroke="#2c3e50" stroke-width="3" stroke-linecap="round" />
    <line x1="353.33" y1="106.67" x2="940.00" y2="106.67" stroke="#2c3e50" stroke-width="3" stroke-linecap="round" />

  <!-- Openings (doors/windows) -->
  <line x1="170.00" y1="693.33" x2="243.33" y2="693.33" stroke="#e74c3c" stroke-width="4" stroke-linecap="round" />
    <line x1="353.33" y1="433.00" x2="353.33" y2="367.00" stroke="#e74c3c" stroke-width="4" stroke-linecap="round" />
    <line x1="445.00" y1="693.33" x2="555.00" y2="693.33" stroke="#3498db" stroke-width="3" stroke-linecap="round" />
    <line x1="573.33" y1="106.67" x2="720.00" y2="106.67" stroke="#3498db" stroke-width="3" stroke-linecap="round" />

  <!-- Labels -->
  <text x="206.67" y="400.00" font-size="14" fill="#2c3e50" text-anchor="middle" dominant-baseline="middle" font-family="Arial, sans-serif">Foyer</text>
    <text x="646.67" y="400.00" font-size="14" fill="#2c3e50" text-anchor="middle" dominant-baseline="middle" font-family="Arial, sans-serif">Living</text>

  <!-- Dimensions -->


  <!-- Compass / Orientation -->

</svg>