<?xml version="1.0" encoding="UTF-8"?>
<svg xmlns="http://www.w3.org/2000/svg" width="1000" height="800" viewBox="0 0 1000 800">
  <defs>
    <style>
      .room-label { font-family: Arial, sans-serif; font-weight: 500; }
    </style>
  </defs>

  <!-- Background -->
  <rect width="1000" height="800" fill="#ffffff" />

  <!-- Footprint (boundary) -->
  <path d="M 150.00 594.44 L 850.00 594.44 L 850.00 205.56 L 150.00 205.56 Z" fill="none" stroke="#333333" stroke-width="2" stroke-dasharray="8,4" />

  <!-- Rooms -->
  <path d="M 150.00 594.44 L 383.33 594.44 L 383.33 205.56 L 150.00 205.56 Z" fill="#ffffff" stroke="#707070" stroke-width="1" />
    <path d="M 383.33 594.44 L 850.00 594.44 L 850.00 205.56 L 383.33 205.56 Z" fill="#ffffff" stroke="#707070" stroke-width="1" />

  <!-- Courtyards -->


  <!-- Objects / Fixtures -->
  <path class="object-clearance" d="M 202.89 463.00 L 202.89 492.56 L 261.22 492.56 L 261.22 463.00 Z" fill="#555555" fill-opacity="0.08" stroke="#555555" stroke-opacity="0.28" stroke-width="0.75" stroke-dasharray="1,4" />
    <path class="object-clearance" d="M 150.00 447.44 L 150.00 463.00 L 202.89 463.00 L 202.89 447.44 Z" fill="#555555" fill-opacity="0.08" stroke="#555555" stroke-opacity="0.28" stroke-width="0.75" stroke-dasharray="1,4" />
    <path class="object-clearance" d="M 150.00 492.56 L 150.00 508.11 L 202.89 508.11 L 202.89 492.56 Z" fill="#555555" fill-opacity="0.08" stroke="#555555" stroke-opacity="0.28" stroke-width="0.75" stroke-dasharray="1,4" />
    <path class="object-clearance" d="M 323.06 240.56 L 280.28 240.56 L 280.28 295.00 L 323.06 295.00 Z" fill="#555555" fill-opacity="0.08" stroke="#555555" stroke-opacity="0.28" stroke-width="0.75" stroke-dasharray="1,4" />
    <path class="object-clearance" d="M 334.72 205.56 L 323.06 205.56 L 323.06 240.56 L 334.72 240.56 Z" fill="#555555" fill-opacity="0.08" stroke="#555555" stroke-opacity="0.28" stroke-width="0.75" stroke-dasharray="1,4" />
    <path class="object-clearance" d="M 280.28 205.56 L 268.61 205.56 L 268.61 240.56 L 280.28 240.56 Z" fill="#555555" fill-opacity="0.08" stroke="#555555" stroke-opacity="0.28" stroke-width="0.75" stroke-dasharray="1,4" />
    <path class="object-clearance" d="M 530.55 537.15 L 601.67 537.15 L 601.67 466.03 L 530.55 466.03 Z" fill="#555555" fill-opacity="0.08" stroke="#555555" stroke-opacity="0.28" stroke-width="0.75" stroke-dasharray="1,4" />
    <path class="object-clearance" d="M 725.93 253.96 L 678.52 253.96 L 678.52 307.30 L 725.93 307.30 Z" fill="#555555" fill-opacity="0.08" stroke="#555555" stroke-opacity="0.28" stroke-width="0.75" stroke-dasharray="1,4" />
    <path class="object-clearance" d="M 791.67 252.22 L 729.44 252.22 L 729.44 310.56 L 791.67 310.56 Z" fill="#555555" fill-opacity="0.08" stroke="#555555" stroke-opacity="0.28" stroke-width="0.75" stroke-dasharray="1,4" />
    <path class="object-clearance" d="M 800.61 338.34 L 800.61 267.22 L 729.49 267.22 L 729.49 338.34 Z" fill="#555555" fill-opacity="0.08" stroke="#555555" stroke-opacity="0.28" stroke-width="0.75" stroke-dasharray="1,4" />
    <g class="fixture fixture-toilet" data-object="wc" data-catalog-id="builtin.sanitary.toilet.floor_mounted">
      <path class="fixture-base fixture-toilet" d="M 150.00 463.00 L 150.00 492.56 L 202.89 492.56 L 202.89 463.00 Z" fill="#ffffff" stroke="#111111" stroke-width="1.5" />
      <path class="fixture-detail fixture-toilet-tank" d="M 152.64 467.14 L 152.64 488.42 L 161.64 488.42 L 161.64 467.14 Z" fill="#ffffff" fill-opacity="0.42" stroke="#111111" stroke-width="1" />
      <path class="fixture-detail fixture-toilet-bowl" d="M 177.50 487.53 L 181.06 487.20 L 184.38 486.22 L 187.23 484.67 L 189.41 482.65 L 190.78 480.30 L 191.25 477.78 L 190.78 475.25 L 189.41 472.90 L 187.23 470.88 L 184.38 469.33 L 181.06 468.36 L 177.50 468.02 L 173.94 468.36 L 170.63 469.33 L 167.78 470.88 L 165.59 472.90 L 164.22 475.25 L 163.75 477.78 L 164.22 480.30 L 165.59 482.65 L 167.78 484.67 L 170.63 486.22 L 173.94 487.20 Z" fill="#ffffff" fill-opacity="0.42" stroke="#111111" stroke-width="1" />
      <path class="fixture-detail fixture-toilet-water" d="M 178.03 483.10 L 179.81 482.92 L 181.47 482.39 L 182.89 481.54 L 183.99 480.44 L 184.67 479.15 L 184.91 477.78 L 184.67 476.40 L 183.99 475.12 L 182.89 474.02 L 181.47 473.17 L 179.81 472.64 L 178.03 472.46 L 176.25 472.64 L 174.59 473.17 L 173.17 474.02 L 172.08 475.12 L 171.39 476.40 L 171.16 477.78 L 171.39 479.15 L 172.08 480.44 L 173.17 481.54 L 174.59 482.39 L 176.25 482.92 Z" fill="#ffffff" fill-opacity="0.42" stroke="#111111" stroke-width="1" />
    </g>
    <circle data-object-origin="wc" cx="150.00" cy="477.78" r="2.5" fill="#111111" />
    <g class="fixture fixture-bath-sink" data-object="lav" data-catalog-id="builtin.sanitary.sink.wall_hung">
      <path class="fixture-base fixture-bath-sink" d="M 323.06 205.56 L 280.28 205.56 L 280.28 240.56 L 323.06 240.56 Z" fill="#ffffff" stroke="#111111" stroke-width="1.5" />
      <path class="fixture-detail fixture-sink-basin" d="M 287.12 222.36 L 287.62 225.07 L 289.07 227.61 L 291.38 229.78 L 294.39 231.45 L 297.90 232.50 L 301.67 232.86 L 305.43 232.50 L 308.94 231.45 L 311.95 229.78 L 314.26 227.61 L 315.72 225.07 L 316.21 222.36 L 315.72 219.64 L 314.26 217.11 L 311.95 214.93 L 308.94 213.26 L 305.43 212.21 L 301.67 211.86 L 297.90 212.21 L 294.39 213.26 L 291.38 214.93 L 289.07 217.11 L 287.62 219.64 Z" fill="#ffffff" fill-opacity="0.42" stroke="#111111" stroke-width="1" />
      <path class="fixture-detail fixture-sink-inner" d="M 292.26 222.36 L 292.58 223.99 L 293.52 225.51 L 295.01 226.81 L 296.96 227.81 L 299.23 228.44 L 301.67 228.66 L 304.10 228.44 L 306.37 227.81 L 308.32 226.81 L 309.82 225.51 L 310.76 223.99 L 311.08 222.36 L 310.76 220.72 L 309.82 219.21 L 308.32 217.90 L 306.37 216.90 L 304.10 216.27 L 301.67 216.06 L 299.23 216.27 L 296.96 216.90 L 295.01 217.90 L 293.52 219.21 L 292.58 220.72 Z" fill="#ffffff" fill-opacity="0.42" stroke="#111111" stroke-width="1" />
      <path class="fixture-detail fixture-drain" d="M 300.17 223.06 L 300.22 223.44 L 300.37 223.80 L 300.61 224.11 L 300.92 224.35 L 301.28 224.50 L 301.67 224.55 L 302.05 224.50 L 302.42 224.35 L 302.73 224.11 L 302.96 223.80 L 303.11 223.44 L 303.16 223.06 L 303.11 222.67 L 302.96 222.31 L 302.73 222.00 L 302.42 221.76 L 302.05 221.61 L 301.67 221.56 L 301.28 221.61 L 300.92 221.76 L 300.61 222.00 L 300.37 222.31 L 300.22 222.67 Z" fill="#ffffff" fill-opacity="0.42" stroke="#111111" stroke-width="1" />
      <line class="fixture-detail fixture-faucet" x1="301.67" y1="209.76" x2="301.67" y2="216.06" stroke="#111111" stroke-width="1" stroke-linecap="round" />
    </g>
    <circle data-object-origin="lav" cx="301.67" cy="205.56" r="2.5" fill="#111111" />
    <g class="fixture fixture-range" data-object="range" data-catalog-id="builtin.kitchen.range.size_36in">
      <path class="fixture-base fixture-range" d="M 530.55 594.44 L 601.67 594.44 L 601.67 537.15 L 530.55 537.15 Z" fill="#ffffff" stroke="#111111" stroke-width="1.5" />
      <path class="fixture-detail fixture-burner" d="M 560.42 574.39 L 560.18 572.55 L 559.47 570.84 L 558.34 569.36 L 556.87 568.23 L 555.15 567.52 L 553.31 567.28 L 551.47 567.52 L 549.75 568.23 L 548.28 569.36 L 547.15 570.84 L 546.44 572.55 L 546.20 574.39 L 546.44 576.23 L 547.15 577.95 L 548.28 579.42 L 549.75 580.55 L 551.47 581.26 L 553.31 581.50 L 555.15 581.26 L 556.87 580.55 L 558.34 579.42 L 559.47 577.95 L 560.18 576.23 Z" fill="#ffffff" fill-opacity="0.42" stroke="#111111" stroke-width="1" />
      <path class="fixture-detail fixture-burner" d="M 586.02 574.39 L 585.78 572.55 L 585.07 570.84 L 583.94 569.36 L 582.47 568.23 L 580.75 567.52 L 578.91 567.28 L 577.07 567.52 L 575.36 568.23 L 573.88 569.36 L 572.75 570.84 L 572.04 572.55 L 571.80 574.39 L 572.04 576.23 L 572.75 577.95 L 573.88 579.42 L 575.36 580.55 L 577.07 581.26 L 578.91 581.50 L 580.75 581.26 L 582.47 580.55 L 583.94 579.42 L 585.07 577.95 L 585.78 576.23 Z" fill="#ffffff" fill-opacity="0.42" stroke="#111111" stroke-width="1" />
      <path class="fixture-detail fixture-burner" d="M 560.42 556.63 L 560.18 554.79 L 559.47 553.08 L 558.34 551.60 L 556.87 550.47 L 555.15 549.76 L 553.31 549.52 L 551.47 549.76 L 549.75 550.47 L 548.28 551.60 L 547.15 553.08 L 546.44 554.79 L 546.20 556.63 L 546.44 558.47 L 547.15 560.19 L 548.28 561.66 L 549.75 562.79 L 551.47 563.50 L 553.31 563.74 L 555.15 563.50 L 556.87 562.79 L 558.34 561.66 L 559.47 560.19 L 560.18 558.47 Z" fill="#ffffff" fill-opacity="0.42" stroke="#111111" stroke-width="1" />
      <path class="fixture-detail fixture-burner" d="M 586.02 556.63 L 585.78 554.79 L 585.07 553.08 L 583.94 551.60 L 582.47 550.47 L 580.75 549.76 L 578.91 549.52 L 577.07 549.76 L 575.36 550.47 L 573.88 551.60 L 572.75 553.08 L 572.04 554.79 L 571.80 556.63 L 572.04 558.47 L 572.75 560.19 L 573.88 561.66 L 575.36 562.79 L 577.07 563.50 L 578.91 563.74 L 580.75 563.50 L 582.47 562.79 L 583.94 561.66 L 585.07 560.19 L 585.78 558.47 Z" fill="#ffffff" fill-opacity="0.42" stroke="#111111" stroke-width="1" />
      <line class="fixture-detail fixture-control-line" x1="539.09" y1="584.13" x2="593.14" y2="584.13" stroke="#111111" stroke-width="1" stroke-linecap="round" />
    </g>
    <circle data-object-origin="range" cx="566.11" cy="594.44" r="2.5" fill="#111111" />
    <g class="fixture fixture-counter" data-object="range_left_counter" data-catalog-id="builtin.kitchen.counter.size_24in">
      <path class="fixture-base fixture-counter" d="M 476.29 594.44 L 523.71 594.44 L 523.71 544.07 L 476.29 544.07 Z" fill="#ffffff" stroke="#111111" stroke-width="1.5" />
      <line class="fixture-detail fixture-counter-backsplash" x1="478.19" y1="588.40" x2="521.81" y2="588.40" stroke="#111111" stroke-width="1" stroke-linecap="round" />
      <line class="fixture-detail fixture-counter-front-edge" x1="478.19" y1="548.10" x2="521.81" y2="548.10" stroke="#111111" stroke-width="1" stroke-linecap="round" />
    </g>
    <circle data-object-origin="range_left_counter" cx="500.00" cy="594.44" r="2.5" fill="#111111" />
    <g class="fixture fixture-counter" data-object="range_right_counter" data-catalog-id="builtin.kitchen.counter.size_36in">
      <path class="fixture-base fixture-counter" d="M 604.44 594.44 L 675.56 594.44 L 675.56 544.07 L 604.44 544.07 Z" fill="#ffffff" stroke="#111111" stroke-width="1.5" />
      <line class="fixture-detail fixture-counter-backsplash" x1="607.28" y1="588.40" x2="672.72" y2="588.40" stroke="#111111" stroke-width="1" stroke-linecap="round" />
      <line class="fixture-detail fixture-counter-front-edge" x1="607.28" y1="548.10" x2="672.72" y2="548.10" stroke="#111111" stroke-width="1" stroke-linecap="round" />
    </g>
    <circle data-object-origin="range_right_counter" cx="640.00" cy="594.44" r="2.5" fill="#111111" />
    <g class="fixture fixture-dishwasher" data-object="dishwasher" data-catalog-id="builtin.kitchen.dishwasher.standard_24in">
      <path class="fixture-base fixture-dishwasher" d="M 725.93 205.56 L 678.52 205.56 L 678.52 253.96 L 725.93 253.96 Z" fill="#ffffff" stroke="#111111" stroke-width="1.5" />
      <path class="fixture-detail fixture-dishwasher-door" d="M 721.19 217.17 L 683.26 217.17 L 683.26 249.12 L 721.19 249.12 Z" fill="#ffffff" fill-opacity="0.42" stroke="#111111" stroke-width="1" />
      <line class="fixture-detail fixture-dishwasher-controls" x1="720.24" y1="213.30" x2="684.21" y2="213.30" stroke="#111111" stroke-width="1" stroke-linecap="round" />
      <line class="fixture-detail fixture-dishwasher-handle" x1="717.39" y1="222.01" x2="687.05" y2="222.01" stroke="#111111" stroke-width="1" stroke-linecap="round" />
    </g>
    <circle data-object-origin="dishwasher" cx="702.22" cy="205.56" r="2.5" fill="#111111" />
    <g class="fixture fixture-kitchen-sink" data-object="kitchen_sink" data-catalog-id="builtin.kitchen.sink">
      <path class="fixture-base fixture-kitchen-sink" d="M 791.67 205.56 L 729.44 205.56 L 729.44 252.22 L 791.67 252.22 Z" fill="#ffffff" stroke="#111111" stroke-width="1.5" />
      <path class="fixture-detail fixture-sink-basin" d="M 783.58 213.96 L 763.04 213.96 L 763.04 243.82 L 783.58 243.82 Z" fill="#ffffff" fill-opacity="0.42" stroke="#111111" stroke-width="1" />
      <path class="fixture-detail fixture-sink-basin" d="M 758.07 213.96 L 737.53 213.96 L 737.53 243.82 L 758.07 243.82 Z" fill="#ffffff" fill-opacity="0.42" stroke="#111111" stroke-width="1" />
      <path class="fixture-detail fixture-drain" d="M 771.76 228.89 L 771.81 229.29 L 771.96 229.67 L 772.21 229.99 L 772.53 230.24 L 772.91 230.39 L 773.31 230.44 L 773.71 230.39 L 774.09 230.24 L 774.41 229.99 L 774.66 229.67 L 774.81 229.29 L 774.87 228.89 L 774.81 228.49 L 774.66 228.11 L 774.41 227.79 L 774.09 227.54 L 773.71 227.39 L 773.31 227.33 L 772.91 227.39 L 772.53 227.54 L 772.21 227.79 L 771.96 228.11 L 771.81 228.49 Z" fill="#ffffff" fill-opacity="0.42" stroke="#111111" stroke-width="1" />
      <path class="fixture-detail fixture-drain" d="M 746.24 228.89 L 746.30 229.29 L 746.45 229.67 L 746.70 229.99 L 747.02 230.24 L 747.40 230.39 L 747.80 230.44 L 748.20 230.39 L 748.58 230.24 L 748.90 229.99 L 749.15 229.67 L 749.30 229.29 L 749.36 228.89 L 749.30 228.49 L 749.15 228.11 L 748.90 227.79 L 748.58 227.54 L 748.20 227.39 L 747.80 227.33 L 747.40 227.39 L 747.02 227.54 L 746.70 227.79 L 746.45 228.11 L 746.30 228.49 Z" fill="#ffffff" fill-opacity="0.42" stroke="#111111" stroke-width="1" />
      <line class="fixture-detail fixture-faucet" x1="760.56" y1="208.82" x2="760.56" y2="215.82" stroke="#111111" stroke-width="1" stroke-linecap="round" />
    </g>
    <circle data-object-origin="kitchen_sink" cx="760.56" cy="205.56" r="2.5" fill="#111111" />
    <g class="fixture fixture-fridge" data-object="fridge" data-catalog-id="builtin.kitchen.fridge.counter_depth_36in">
      <path class="fixture-base fixture-fridge" d="M 850.00 338.34 L 850.00 267.22 L 800.61 267.22 L 800.61 338.34 Z" fill="#ffffff" stroke="#111111" stroke-width="1.5" />
      <line class="fixture-detail fixture-door-split" x1="846.05" y1="301.36" x2="804.56" y2="301.36" stroke="#111111" stroke-width="1" stroke-linecap="round" />
      <line class="fixture-detail fixture-handle" x1="837.65" y1="294.24" x2="812.96" y2="294.24" stroke="#111111" stroke-width="1" stroke-linecap="round" />
    </g>
    <circle data-object-origin="fridge" cx="850.00" cy="302.78" r="2.5" fill="#111111" />

  <!-- Walls -->
  <line x1="383.33" y1="594.44" x2="383.33" y2="205.56" stroke="#111111" stroke-width="3" stroke-linecap="round" />
    <line x1="150.00" y1="594.44" x2="383.33" y2="594.44" stroke="#111111" stroke-width="3" stroke-linecap="round" />
    <line x1="150.00" y1="205.56" x2="383.33" y2="205.56" stroke="#111111" stroke-width="3" stroke-linecap="round" />
    <line x1="150.00" y1="594.44" x2="150.00" y2="205.56" stroke="#111111" stroke-width="3" stroke-linecap="round" />
    <line x1="383.33" y1="594.44" x2="850.00" y2="594.44" stroke="#111111" stroke-width="3" stroke-linecap="round" />
    <line x1="850.00" y1="594.44" x2="850.00" y2="205.56" stroke="#111111" stroke-width="3" stroke-linecap="round" />
    <line x1="383.33" y1="205.56" x2="850.00" y2="205.56" stroke="#111111" stroke-width="3" stroke-linecap="round" />

  <!-- Openings (doors/windows) -->
  <line x1="383.33" y1="435.00" x2="383.33" y2="365.00" stroke="#111111" stroke-width="4" stroke-linecap="round" />
    <line class="door-leaf" x1="383.33" y1="365.00" x2="453.33" y2="365.00" stroke="#111111" stroke-width="1.5" stroke-linecap="round" />
    <path class="door-swing" d="M 383.33 435.00 A 70.00 70.00 0 0 0 453.33 365.00" fill="none" stroke="#111111" stroke-width="1" stroke-dasharray="2,2" opacity="0.8" />
    <line x1="712.33" y1="594.44" x2="782.33" y2="594.44" stroke="#111111" stroke-width="4" stroke-linecap="round" />
    <line class="door-leaf" x1="782.33" y1="594.44" x2="782.33" y2="524.44" stroke="#111111" stroke-width="1.5" stroke-linecap="round" />
    <path class="door-swing" d="M 712.33 594.44 A 70.00 70.00 0 0 1 782.33 524.44" fill="none" stroke="#111111" stroke-width="1" stroke-dasharray="2,2" opacity="0.8" />

  <!-- Labels -->
  <text class="room-label" data-room-label="bath" x="266.67" y="400.00" font-size="14" fill="#111111" text-anchor="middle" dominant-baseline="middle" font-family="Arial, sans-serif">Bath</text>
    <text class="room-label" data-room-label="kitchen" x="616.67" y="400.00" font-size="14" fill="#111111" text-anchor="middle" dominant-baseline="middle" font-family="Arial, sans-serif">Kitchen</text>
    <text class="fixture-label" data-object-label="wc" x="213.22" y="477.78" font-size="10.08" fill="#111111" text-anchor="middle" dominant-baseline="middle" font-family="Arial, sans-serif" transform="rotate(90, 213.22, 477.78)">Floor Mounted Toilet</text>
    <text class="fixture-label" data-object-label="lav" x="301.67" y="250.89" font-size="10.08" fill="#111111" text-anchor="middle" dominant-baseline="middle" font-family="Arial, sans-serif">Wall Hung Sink</text>
    <text class="fixture-label" data-object-label="range" x="566.11" y="526.82" font-size="10.08" fill="#111111" text-anchor="middle" dominant-baseline="middle" font-family="Arial, sans-serif">36 in Range</text>
    <text class="fixture-label" data-object-label="range_left_counter" x="500.00" y="604.78" font-size="10.08" fill="#111111" text-anchor="middle" dominant-baseline="middle" font-family="Arial, sans-serif">24 in Counter Space</text>
    <text class="fixture-label" data-object-label="range_right_counter" x="658.07" y="533.74" font-size="10.08" fill="#111111" text-anchor="middle" dominant-baseline="middle" font-family="Arial, sans-serif">36 in Counter Space</text>
    <text class="fixture-label" data-object-label="dishwasher" x="702.22" y="264.29" font-size="10.08" fill="#111111" text-anchor="middle" dominant-baseline="middle" font-family="Arial, sans-serif">24 in Dishwasher</text>
    <text class="fixture-label" data-object-label="kitchen_sink" x="760.56" y="195.22" font-size="10.08" fill="#111111" text-anchor="middle" dominant-baseline="middle" font-family="Arial, sans-serif">Kitchen Sink</text>
    <text class="fixture-label" data-object-label="fridge" x="860.33" y="302.78" font-size="10.08" fill="#111111" text-anchor="middle" dominant-baseline="middle" font-family="Arial, sans-serif" transform="rotate(90, 860.33, 302.78)">36 in Counter Depth Refrigerator</text>

  <!-- Dimensions -->
  <g class="dimension dimension-wall" data-wall-dimension="wall_0">
      <line x1="396.33" y1="594.44" x2="396.33" y2="205.56" stroke="#111111" stroke-width="1" stroke-dasharray="3,2" />
      <line x1="383.33" y1="594.44" x2="396.33" y2="594.44" stroke="#111111" stroke-width="0.75" />
      <line x1="383.33" y1="205.56" x2="396.33" y2="205.56" stroke="#111111" stroke-width="0.75" />
      <text x="396.33" y="400.00" font-size="10" fill="#111111" text-anchor="middle" dominant-baseline="middle" font-family="Arial, sans-serif" transform="rotate(-90, 396.33, 400.00)">16ft 5in</text>
    </g>
    <g class="dimension dimension-wall" data-wall-dimension="wall_4">
      <line x1="383.33" y1="607.44" x2="850.00" y2="607.44" stroke="#111111" stroke-width="1" stroke-dasharray="3,2" />
      <line x1="383.33" y1="594.44" x2="383.33" y2="607.44" stroke="#111111" stroke-width="0.75" />
      <line x1="850.00" y1="594.44" x2="850.00" y2="607.44" stroke="#111111" stroke-width="0.75" />
      <text x="616.67" y="607.44" font-size="10" fill="#111111" text-anchor="middle" dominant-baseline="middle" font-family="Arial, sans-serif">19ft 8in</text>
    </g>
    <g class="dimension dimension-fixture" data-fixture-dimension="wc">
      <line x1="139.00" y1="463.00" x2="139.00" y2="492.56" stroke="#111111" stroke-width="1" stroke-dasharray="3,2" />
      <line x1="150.00" y1="463.00" x2="139.00" y2="463.00" stroke="#111111" stroke-width="0.75" />
      <line x1="150.00" y1="492.56" x2="139.00" y2="492.56" stroke="#111111" stroke-width="0.75" />
      <text x="139.00" y="477.78" font-size="10" fill="#111111" text-anchor="middle" dominant-baseline="middle" font-family="Arial, sans-serif" transform="rotate(90, 139.00, 477.78)">1ft 3in</text>
    </g>
    <g class="dimension dimension-fixture" data-fixture-dimension="wc">
      <line x1="150.00" y1="452.00" x2="202.89" y2="452.00" stroke="#111111" stroke-width="1" stroke-dasharray="3,2" />
      <line x1="150.00" y1="463.00" x2="150.00" y2="452.00" stroke="#111111" stroke-width="0.75" />
      <line x1="202.89" y1="463.00" x2="202.89" y2="452.00" stroke="#111111" stroke-width="0.75" />
      <text x="176.44" y="452.00" font-size="10" fill="#111111" text-anchor="middle" dominant-baseline="middle" font-family="Arial, sans-serif">2ft 3in</text>
    </g>
    <g class="dimension dimension-fixture" data-fixture-dimension="lav">
      <line x1="323.06" y1="194.56" x2="280.28" y2="194.56" stroke="#111111" stroke-width="1" stroke-dasharray="3,2" />
      <line x1="323.06" y1="205.56" x2="323.06" y2="194.56" stroke="#111111" stroke-width="0.75" />
      <line x1="280.28" y1="205.56" x2="280.28" y2="194.56" stroke="#111111" stroke-width="0.75" />
      <text x="301.67" y="194.56" font-size="10" fill="#111111" text-anchor="middle" dominant-baseline="middle" font-family="Arial, sans-serif">1ft 10in</text>
    </g>
    <g class="dimension dimension-fixture" data-fixture-dimension="lav">
      <line x1="334.06" y1="205.56" x2="334.06" y2="240.56" stroke="#111111" stroke-width="1" stroke-dasharray="3,2" />
      <line x1="323.06" y1="205.56" x2="334.06" y2="205.56" stroke="#111111" stroke-width="0.75" />
      <line x1="323.06" y1="240.56" x2="334.06" y2="240.56" stroke="#111111" stroke-width="0.75" />
      <text x="334.06" y="223.06" font-size="10" fill="#111111" text-anchor="middle" dominant-baseline="middle" font-family="Arial, sans-serif" transform="rotate(90, 334.06, 223.06)">1ft 6in</text>
    </g>
    <g class="dimension dimension-fixture" data-fixture-dimension="range">
      <line x1="530.55" y1="605.44" x2="601.67" y2="605.44" stroke="#111111" stroke-width="1" stroke-dasharray="3,2" />
      <line x1="530.55" y1="594.44" x2="530.55" y2="605.44" stroke="#111111" stroke-width="0.75" />
      <line x1="601.67" y1="594.44" x2="601.67" y2="605.44" stroke="#111111" stroke-width="0.75" />
      <text x="566.11" y="605.44" font-size="10" fill="#111111" text-anchor="middle" dominant-baseline="middle" font-family="Arial, sans-serif">3ft</text>
    </g>
    <g class="dimension dimension-fixture" data-fixture-dimension="range">
      <line x1="519.55" y1="594.44" x2="519.55" y2="537.15" stroke="#111111" stroke-width="1" stroke-dasharray="3,2" />
      <line x1="530.55" y1="594.44" x2="519.55" y2="594.44" stroke="#111111" stroke-width="0.75" />
      <line x1="530.55" y1="537.15" x2="519.55" y2="537.15" stroke="#111111" stroke-width="0.75" />
      <text x="519.55" y="565.80" font-size="10" fill="#111111" text-anchor="middle" dominant-baseline="middle" font-family="Arial, sans-serif" transform="rotate(-90, 519.55, 565.80)">2ft 5in</text>
    </g>

  <!-- Compass / Orientation -->

</svg>